# xmcd
#
# Track frame offsets: 
#        150
#        16074
#        33224
#        48426
#        66289
#        77209
#        90051
#        110468
#        124241
#        141919
#        157877
#        177309
#
# Disc length: 2563 seconds
#
# Revision: 0
# Processed by: cddbd v1.5.2PL0 Copyright (c) Steve Scherf et al.
# Submitted via: ExactAudioCopyFreeDBPlugin 1.0
#
DISCID=8f0a010c
DTITLE=The Beez - Freischwimmer
DYEAR=2011
DGENRE=Pop-Folk
TTITLE0=Everybody's Going Where Everybody Else Goes
TTITLE1=Chicken Wings
TTITLE2=Mojo
TTITLE3=Ball and Chain
TTITLE4=A Plague of Locusts
TTITLE5=Always Looking Out for You
TTITLE6=Hormonfasching
TTITLE7=Tonight
TTITLE8=Das Schiff
TTITLE9=You Ought to Know
TTITLE10=Sydney
TTITLE11=Ich liebe Musik
EXTD=
EXTT0=
EXTT1=
EXTT2=
EXTT3=
EXTT4=
EXTT5=
EXTT6=
EXTT7=
EXTT8=
EXTT9=
EXTT10=
EXTT11=
PLAYORDER=
